<svg width="49" height="44" viewBox="0 0 49 44" fill="none" xmlns="http://www.w3.org/2000/svg">
<path fill-rule="evenodd" clip-rule="evenodd" d="M18.7086 0C20.0958 0 20.8 0.0427288 21.6963 0.202962C22.3365 0.320466 23.3288 0.544792 23.8837 0.694343C24.4386 0.843894 25.2495 1.11095 25.6763 1.28186C26.0924 1.45278 26.8287 1.78393 27.2982 2.01894C27.7677 2.25395 28.5466 2.7026 29.0374 3.01238C29.5176 3.33285 30.1791 3.80286 30.4992 4.05924C30.8193 4.31561 31.4382 4.8604 31.8757 5.27701C32.3025 5.68293 33.0067 6.45205 33.4336 6.98616C33.8604 7.50959 34.4366 8.31076 34.7247 8.74873C35.0021 9.1867 35.4929 10.0733 35.7917 10.7249C36.1011 11.3659 36.5066 12.3273 36.6773 12.8614C36.8587 13.3848 37.0934 14.2821 37.2108 14.8376C37.3282 15.3931 37.4776 16.2797 37.5416 16.8138C37.5949 17.3372 37.6483 18.3413 37.6483 20.2855L38.0431 20.3496C38.2672 20.3816 38.822 20.4992 39.2702 20.6167C39.729 20.7235 40.3265 20.9051 40.6039 21.0226C40.892 21.1294 41.4042 21.3644 41.7563 21.546C42.1084 21.7276 42.7593 22.1228 43.1968 22.4326C43.6343 22.7424 44.3065 23.3193 44.6906 23.7038C45.0748 24.0884 45.651 24.7614 45.9604 25.1993C46.2698 25.6373 46.6966 26.3316 46.8994 26.7482C47.1128 27.1542 47.4009 27.8271 47.5396 28.2437C47.6783 28.6497 47.8597 29.3013 47.9451 29.6858C48.0304 30.0704 48.1265 30.8395 48.1691 31.395C48.2118 32.0253 48.1905 32.8157 48.1051 33.478C48.0411 34.0655 47.8597 34.9308 47.7317 35.4008C47.5929 35.8708 47.3262 36.5865 47.1448 37.0032C46.9634 37.4091 46.5366 38.1568 46.2165 38.6589C45.8857 39.161 45.2135 39.9835 44.7013 40.4856C44.1998 40.9983 43.3569 41.6926 42.8234 42.0345C42.2898 42.3763 41.4789 42.825 41.0094 43.0172C40.5399 43.2202 39.6009 43.53 38.9287 43.6902C37.9044 43.9466 37.4776 44 36.3359 44C35.2475 44 34.7567 43.9466 33.8284 43.7223C33.1988 43.5727 32.3239 43.3057 31.8864 43.1347C31.4489 42.9531 30.7126 42.5793 30.2538 42.3122C29.795 42.0345 29.0481 41.5004 28.5999 41.1158C28.1518 40.7312 27.4689 40.0262 27.0848 39.5455C26.7006 39.0755 26.1458 38.2102 25.2815 36.5759L24.5559 36.8002C24.1611 36.9284 23.3715 37.1313 22.8167 37.2488C22.2618 37.3664 21.3335 37.5159 20.7573 37.58C20.1918 37.6441 19.3168 37.6975 18.8153 37.6975C18.3138 37.6975 17.4389 37.6441 16.8627 37.58C16.2972 37.5159 15.3689 37.3664 14.814 37.2488C14.2592 37.1313 13.3202 36.8643 12.7333 36.6613C12.1465 36.4584 11.1861 36.0631 10.5993 35.7854C10.0124 35.497 9.03075 34.9308 8.41187 34.5142C7.793 34.1083 6.86469 33.3926 6.33118 32.9332C5.80834 32.4632 5.05075 31.7048 4.64528 31.2348C4.25048 30.7647 3.57826 29.8781 3.16212 29.2586C2.74598 28.639 2.18046 27.6562 1.89236 27.0687C1.61494 26.4812 1.18813 25.4236 0.953385 24.7186C0.71864 24.0136 0.419873 22.8599 0.302501 22.1549C0.185128 21.4499 0.0570857 20.3176 0.0144048 19.6446C-0.0176059 18.9289 0.00373458 17.882 0.0784262 17.1343C0.153118 16.4292 0.313171 15.3931 0.430544 14.8376C0.547916 14.2821 0.814672 13.3421 1.01741 12.7546C1.22014 12.167 1.61494 11.2056 1.89236 10.6181C2.18046 10.0306 2.74598 9.04783 3.16212 8.42826C3.56759 7.80869 4.26115 6.9007 4.68796 6.39864C5.12544 5.90726 5.88303 5.14882 6.38453 4.71085C6.88603 4.27288 7.81434 3.56786 8.46522 3.12989C9.10544 2.7026 10.0978 2.13644 10.6526 1.86939C11.2075 1.61301 12.1465 1.22845 12.7333 1.02549C13.3202 0.82253 14.2805 0.555475 14.8674 0.43797C15.4542 0.320466 16.1478 0.170915 16.4145 0.117504C16.6813 0.0640932 17.7056 0.0106822 18.7086 0ZM15.9344 2.93761C15.4009 3.03375 14.5152 3.24739 13.9604 3.42899C13.4055 3.5999 12.3705 4.02719 11.6663 4.3797C10.9621 4.72153 9.94839 5.31974 9.42554 5.7043C8.89203 6.07817 7.99573 6.86866 7.41954 7.43481C6.84335 8.01165 6.06442 8.90896 5.68029 9.44307C5.30684 9.9665 4.7093 10.9813 4.36786 11.6863C4.01574 12.3914 3.58893 13.4275 3.41821 13.983C3.24748 14.5385 3.01274 15.4571 2.90604 16.0126C2.76732 16.739 2.71397 17.5295 2.71397 18.8434C2.71397 20.1573 2.76732 20.9478 2.90604 21.6742C3.01274 22.2297 3.24748 23.1483 3.41821 23.7038C3.58893 24.2593 4.01574 25.2955 4.36786 26.0005C4.7093 26.7055 5.31751 27.731 5.71231 28.2865C6.11777 28.8313 6.8967 29.7393 7.45155 30.2947C8.0064 30.8395 8.89203 31.6086 9.42554 31.9825C9.94839 32.3671 10.9621 32.9653 11.6663 33.3071C12.3705 33.6596 13.4162 34.0869 13.9924 34.2685C14.5579 34.4501 15.4436 34.6744 15.9557 34.7599C16.4786 34.856 17.4496 34.9522 18.1218 34.9949C18.826 35.027 19.8504 34.9949 20.5226 34.9308C21.1628 34.856 22.2191 34.6638 22.87 34.4928C23.5102 34.3326 24.1611 34.1403 24.3105 34.0655C24.5666 33.948 24.5773 33.9267 24.4919 33.1789C24.4492 32.7516 24.4386 31.9718 24.4706 31.4484C24.5132 30.9143 24.6306 30.0811 24.7373 29.579C24.844 29.077 25.0788 28.2865 25.2602 27.8165C25.4416 27.3464 25.8257 26.556 26.1245 26.0539C26.4232 25.5518 26.9354 24.8254 27.2768 24.4409C27.6076 24.0563 28.1731 23.4795 28.5252 23.1697C28.8774 22.8599 29.4962 22.3899 29.9124 22.1228C30.3178 21.8558 31.0221 21.4712 31.4596 21.2683C31.897 21.076 32.6866 20.7983 33.2201 20.6594C33.743 20.5205 34.3725 20.3816 34.6073 20.3389L35.0341 20.2641C34.9167 17.444 34.7993 16.2904 34.682 15.6922C34.5646 15.1367 34.3192 14.218 34.1271 13.6625C33.9457 13.1071 33.5082 12.0923 33.1561 11.4193C32.8147 10.7463 32.2065 9.75285 31.8117 9.22942C31.4169 8.69531 30.6593 7.83006 30.1258 7.30663C29.5923 6.77252 28.728 6.03545 28.1945 5.66157C27.6716 5.29837 26.6686 4.71085 25.9644 4.35834C25.2602 4.01651 24.2998 3.61059 23.8304 3.46103C23.3609 3.31148 22.4966 3.08716 21.9097 2.96965C21.1948 2.8201 20.3092 2.73464 19.2422 2.71328C18.3565 2.69192 17.4709 2.7026 17.2682 2.72396C17.0654 2.74533 16.4572 2.84147 15.9344 2.93761ZM33.9137 23.2231C33.5296 23.3193 32.836 23.5863 32.3665 23.8106C31.897 24.035 31.2248 24.4302 30.8727 24.6973C30.5206 24.9536 29.923 25.5091 29.5389 25.915C29.1548 26.3316 28.632 27.0473 28.3652 27.5067C28.1091 27.966 27.757 28.7351 27.5969 29.2051C27.4369 29.6752 27.2555 30.5191 27.1915 31.0745C27.0954 31.8116 27.0954 32.3564 27.1808 33.0507C27.2448 33.5742 27.3942 34.3433 27.5222 34.7599C27.6396 35.1658 27.9597 35.9136 28.2158 36.4156C28.4826 36.9177 28.9414 37.6227 29.2508 37.9752C29.5603 38.3384 30.0724 38.8619 30.3925 39.1396C30.7126 39.4067 31.2888 39.8233 31.673 40.0476C32.0571 40.2826 32.676 40.5817 33.0601 40.7312C33.4442 40.8701 34.1805 41.0731 34.714 41.1692C35.4289 41.3081 35.9624 41.3401 36.7947 41.2974C37.4135 41.2654 38.2672 41.1372 38.694 41.009C39.1101 40.8915 39.761 40.6565 40.1345 40.4962C40.4972 40.3253 41.1054 39.9835 41.4896 39.7271C41.8737 39.4707 42.4926 38.9366 42.8767 38.5521C43.2608 38.1675 43.805 37.4732 44.1038 37.0032C44.3919 36.5331 44.7653 35.7961 44.9254 35.3688C45.0961 34.9522 45.2988 34.151 45.3949 33.6062C45.5122 32.9226 45.5549 32.3137 45.5016 31.6086C45.4696 31.0211 45.3309 30.1986 45.1708 29.6538C45.0214 29.1411 44.7547 28.4253 44.5733 28.0515C44.3919 27.6883 44.0291 27.1008 43.7837 26.7482C43.5276 26.3957 43.0261 25.8189 42.6526 25.4557C42.2792 25.0925 41.6603 24.6011 41.2762 24.3554C40.892 24.1097 40.2412 23.7679 39.8357 23.597C39.4196 23.4261 38.7473 23.2124 38.3419 23.127C37.9257 23.0415 37.2108 22.9454 36.7413 22.924C36.2718 22.892 35.5996 22.9026 35.2475 22.9561C34.8954 22.9988 34.2978 23.127 33.9137 23.2231ZM18.89 7.57368C19.1995 7.57368 19.3915 7.65914 20.0958 8.30007L20.1598 10.7249L20.7146 10.9172C21.0241 11.0134 21.5363 11.2804 21.8564 11.5047C22.1765 11.7291 22.6673 12.2098 22.9554 12.573C23.2328 12.9362 23.4996 13.3955 23.5529 13.5771C23.6169 13.7907 23.6169 14.0791 23.5636 14.3035C23.5102 14.5064 23.3289 14.8055 23.1688 14.9765C22.9767 15.158 22.71 15.2862 22.4432 15.329C22.1231 15.3717 21.9311 15.329 21.675 15.1687C21.4829 15.0405 21.2055 14.7628 21.0774 14.5385C20.9387 14.3248 20.6506 13.983 20.4372 13.7907C20.2131 13.6091 19.861 13.4062 19.6476 13.3421C19.4235 13.2887 19.0501 13.2353 18.8153 13.2353C18.5806 13.2353 18.1965 13.2993 17.9617 13.3634C17.7056 13.4489 17.3322 13.7053 17.0334 14.0044C16.6706 14.3676 16.4999 14.6346 16.4572 14.9124C16.4145 15.1367 16.4145 15.4892 16.4572 15.6922C16.4892 15.8951 16.6386 16.2263 16.788 16.4079C16.9374 16.6001 17.3108 16.8779 17.6203 17.0274C17.919 17.177 18.6553 17.4227 19.2422 17.5615C19.829 17.7111 20.64 17.9888 21.0561 18.1811C21.5042 18.3948 22.0804 18.79 22.4752 19.1746C22.9447 19.6125 23.2648 20.0184 23.4889 20.4991C23.7557 21.0546 23.8304 21.3644 23.873 22.0481C23.905 22.7104 23.8624 23.0842 23.681 23.6718C23.5316 24.2166 23.2968 24.6545 22.9554 25.1139C22.6673 25.4771 22.1551 25.9684 21.803 26.2141C21.4509 26.4598 20.9387 26.7269 20.1598 26.9619L20.0958 29.3867L19.701 29.7499C19.3915 30.0277 19.1995 30.1131 18.9007 30.1131C18.6766 30.1131 18.3779 30.049 18.2285 29.9743C18.0898 29.9102 17.855 29.6752 17.727 29.4722C17.5029 29.1411 17.4709 28.9701 17.4816 27.9981C17.4816 27.1969 17.4496 26.9085 17.3535 26.9085C17.2788 26.9085 16.8734 26.7482 16.4679 26.5453C16.0304 26.3316 15.4862 25.9364 15.1448 25.6052C14.8354 25.2955 14.4619 24.8148 14.3232 24.5263C14.1845 24.2486 14.0671 23.8427 14.0671 23.6184C14.0564 23.3833 14.1418 23.1056 14.2805 22.924C14.3979 22.7638 14.6326 22.5608 14.814 22.4754C14.9847 22.3899 15.2301 22.3151 15.3475 22.3151C15.4649 22.3151 15.721 22.3899 15.913 22.4754C16.1051 22.5715 16.4039 22.8706 16.6066 23.1697C16.788 23.4688 17.1081 23.8213 17.3002 23.9602C17.4816 24.0991 17.8123 24.2593 18.0151 24.3341C18.2178 24.3982 18.5806 24.4516 18.8153 24.4516C19.0501 24.4516 19.4235 24.3982 19.6476 24.3447C19.861 24.2807 20.2452 24.0563 20.4906 23.832C20.7253 23.6184 20.9921 23.2765 21.0774 23.0842C21.1521 22.9026 21.2161 22.5395 21.2161 22.2831C21.2161 21.984 21.1415 21.7062 20.9707 21.4605C20.8427 21.2576 20.4906 20.9371 20.2025 20.7662C19.893 20.5739 19.1888 20.3176 18.4952 20.1466C17.8444 19.9757 16.9801 19.6873 16.5746 19.4843C16.1585 19.2921 15.5929 18.9182 15.2942 18.6618C15.0061 18.3948 14.6113 17.9461 14.4192 17.6577C14.2378 17.3693 14.0031 16.8458 13.8964 16.4933C13.7683 16.0126 13.7363 15.6387 13.779 14.9978C13.8323 14.3142 13.9177 13.9937 14.2165 13.3634C14.4619 12.8827 14.8033 12.3914 15.1661 12.0495C15.4649 11.7504 16.0518 11.3445 16.4679 11.1415C16.8734 10.9386 17.2788 10.7783 17.3535 10.7783C17.4496 10.7783 17.4816 10.4899 17.4816 9.67808C17.4709 8.706 17.5029 8.54576 17.727 8.21462C17.8657 8.01165 18.0898 7.78733 18.2392 7.71255C18.3779 7.63778 18.6766 7.57368 18.9007 7.57368H18.89ZM35.781 25.8403H36.2505C36.6133 25.8296 36.8374 25.915 37.1575 26.1394C37.3922 26.3103 38.4592 27.3358 39.5263 28.4147C40.8387 29.7606 41.4789 30.487 41.5323 30.7007C41.5749 30.8716 41.5856 31.192 41.5429 31.395C41.5109 31.598 41.3722 31.8757 41.2335 32.0146C41.1054 32.1428 40.828 32.303 40.6253 32.3671C40.4225 32.4312 40.1131 32.4419 39.9317 32.3991C39.7397 32.3564 39.2488 31.9612 38.7046 31.4377C38.2031 30.9463 37.7657 30.5511 37.723 30.5404C37.6696 30.5404 37.6376 32.0893 37.6376 33.9801C37.6376 37.2382 37.627 37.4518 37.4242 37.7723C37.3068 37.9646 37.1041 38.1782 36.9761 38.253C36.8374 38.3171 36.5386 38.3705 36.3038 38.3705C36.0584 38.3705 35.7383 38.285 35.5676 38.1675C35.3969 38.0607 35.1941 37.8043 35.1088 37.612C35.0021 37.3557 34.9701 36.4477 34.9701 30.3802L33.9884 31.363C33.2522 32.0893 32.9 32.3564 32.6226 32.4098C32.3736 32.4597 32.1176 32.4276 31.8544 32.3137C31.6303 32.2175 31.3529 31.9825 31.2248 31.7902C31.0648 31.5339 31.0221 31.3309 31.0648 30.9677C31.1074 30.5084 31.1928 30.4016 33.4442 28.1583L35.781 25.8403Z" fill="url(#paint0_linear_144_19)"/>
<defs>
<linearGradient id="paint0_linear_144_19" x1="-2.72732" y1="44.2251" x2="52.9692" y2="43.7701" gradientUnits="userSpaceOnUse">
<stop stop-color="#0DC5F5"/>
<stop offset="0.161449" stop-color="#B6F2FF"/>
<stop offset="0.229167" stop-color="#71DDF1"/>
<stop offset="0.324806" stop-color="#48CEFF"/>
<stop offset="0.398594" stop-color="#61D7F6"/>
<stop offset="0.50326" stop-color="#A8E9FF"/>
<stop offset="0.566519" stop-color="#60D2FF"/>
<stop offset="0.639231" stop-color="#A0E2FF"/>
<stop offset="0.723541" stop-color="#96E0FF"/>
<stop offset="0.814614" stop-color="#A4E7FF"/>
<stop offset="0.903012" stop-color="#5DD6F8"/>
<stop offset="1" stop-color="#28A2D8"/>
</linearGradient>
</defs>
</svg>
