<svg width="69" height="47" viewBox="0 0 69 47" fill="none" xmlns="http://www.w3.org/2000/svg">
<path d="M57.0091 17.7188V34.6698C56.9851 34.7252 56.9479 34.778 56.9371 34.8372C56.4569 37.513 54.4799 39.2794 51.9026 39.2806C39.9671 39.2882 28.0316 39.2894 16.0972 39.2806C13.2067 39.2781 11.0136 36.9683 11.0064 33.9364C10.9944 28.679 11.0028 23.4215 11.004 18.1628C11.004 17.5678 11.124 17.4382 11.681 17.4382C26.5659 17.4382 41.452 17.4357 56.3369 17.4495C56.5601 17.4495 56.7846 17.6257 57.0079 17.72L57.0091 17.7188ZM20.3851 27.2297C18.6985 27.0938 18.1583 27.7493 18.1631 29.5319C18.1667 31.1448 18.6865 31.7826 20.3322 31.7813C21.9876 31.7801 22.5338 31.2089 22.5338 29.4715C22.5338 27.7631 21.9432 27.0925 20.3851 27.2309V27.2297Z" fill="#4ACFFF"/>
<path d="M57.0091 14.1408C56.7858 14.2352 56.5613 14.4113 56.3381 14.4113C41.4532 14.4239 26.5671 14.4226 11.6822 14.4226C11.1276 14.4226 10.9884 14.2905 11.0088 13.6967C11.0508 12.494 10.974 11.2599 11.2032 10.0949C11.651 7.81532 13.6532 6.21129 15.8752 6.1421C16.0696 6.13581 16.2641 6.13707 16.4586 6.13707C28.1396 6.13707 39.8206 6.13707 51.5005 6.13707C54.5087 6.13707 56.2708 7.6027 56.9587 10.6761C56.9647 10.7038 56.9911 10.7265 57.0091 10.7516V14.1421V14.1408Z" fill="#4ACFFF"/>
</svg>
