<svg width="44" height="44" viewBox="0 0 44 44" fill="none" xmlns="http://www.w3.org/2000/svg">
<path fill-rule="evenodd" clip-rule="evenodd" d="M1.03942 0.010549L5.64666 0L6.10209 0.400863C6.54693 0.801726 6.56811 0.86502 11.2707 13.3551C13.8656 20.2541 16.0897 26.1616 16.3969 27.0161H37.5267L38.8823 18.8722C39.6343 14.3889 40.2804 10.5912 40.3863 10.1376L14.607 10.0849L14.3104 9.86334C14.1515 9.73675 13.9185 9.50467 13.802 9.35699C13.6431 9.14601 13.5902 8.90338 13.5902 8.44977C13.5902 7.98561 13.6431 7.76409 13.8126 7.53201C13.9397 7.37377 14.1727 7.14169 14.321 7.02565C14.607 6.81467 14.8082 6.81467 28.5558 6.78303C37.3254 6.76193 42.6423 6.79357 42.8753 6.85687C43.0765 6.90961 43.4049 7.13114 43.5955 7.33158C43.7756 7.54256 43.9662 7.86958 43.998 8.05946C44.0403 8.27044 43.4155 12.2369 42.3034 18.8933C40.6935 28.5035 40.524 29.4212 40.2804 29.7377C40.1321 29.917 39.9097 30.1386 39.7826 30.2124C39.592 30.3074 36.4252 30.3496 25.3784 30.3918C11.4295 30.4445 11.2177 30.4445 10.9318 30.6555C10.7835 30.7715 10.5505 31.0036 10.4234 31.1618C10.2539 31.3939 10.2009 31.6154 10.2009 32.0796C10.2009 32.5438 10.2539 32.7653 10.4234 32.9974C10.5505 33.1556 10.7835 33.3877 10.9318 33.5037C11.2177 33.7041 11.4295 33.7147 18.6211 33.7674C25.9503 33.8202 26.0244 33.8202 26.321 34.0417C26.4799 34.1683 26.7129 34.4004 26.8294 34.5481C26.9883 34.7591 27.0412 35.0017 27.0412 35.4553C27.0412 35.9194 26.9883 36.141 26.8188 36.3731C26.6917 36.5313 26.4587 36.7634 26.3104 36.8794C26.035 37.0798 25.8232 37.0904 20.0509 37.1537L20.178 37.755C20.2521 38.082 20.3157 38.5778 20.3157 38.8626C20.3157 39.1369 20.2416 39.6749 20.1568 40.0758C20.0721 40.4661 19.8285 41.0674 19.6167 41.4155C19.4154 41.7636 19.0871 42.2067 18.907 42.3965C18.7164 42.5864 18.3351 42.9029 18.0386 43.0928C17.7526 43.2932 17.1489 43.5675 16.7146 43.7257C16.1851 43.9051 15.6979 44 15.2318 44C14.7658 44 14.2892 43.9156 13.7491 43.7363C13.3148 43.5886 12.7217 43.3143 12.4357 43.1244C12.1498 42.9345 11.7049 42.5548 11.4401 42.2594C11.1859 41.9746 10.8576 41.5104 10.7199 41.2362C10.5822 40.9513 10.3916 40.4555 10.3069 40.1285C10.2221 39.7909 10.148 39.2318 10.148 38.8837C10.148 38.5356 10.2221 37.9765 10.3069 37.6495C10.3916 37.3119 10.4445 37.006 10.4234 36.9638C10.4022 36.9111 10.2539 36.8372 10.0844 36.795C9.91498 36.7423 9.54428 36.5735 9.24772 36.4047C8.96176 36.2359 8.47455 35.8561 8.178 35.5397C7.88144 35.2338 7.51074 34.7169 7.34128 34.4004C7.18241 34.0839 6.98117 33.5881 6.90703 33.2927C6.8223 33.0079 6.75875 32.4594 6.75875 32.0796C6.75875 31.6998 6.83289 31.1091 6.91762 30.761C7.01295 30.4129 7.21418 29.917 7.36246 29.6533C7.52133 29.3896 7.78612 28.9993 7.96617 28.7778C8.14622 28.5457 8.60165 28.1659 8.98294 27.9127C9.36423 27.6701 9.93616 27.3747 10.2539 27.2798C10.5716 27.1743 11.2707 27.0583 12.7641 26.9633L8.49574 15.6231C6.14446 9.38864 4.15328 4.08247 3.89909 3.38624H2.62812C1.81259 3.38624 1.23006 3.33349 1.01824 3.2491C0.827592 3.16471 0.541626 2.95373 0.382755 2.77439C0.213293 2.58451 0.0544231 2.25749 0.022649 2.04651C-0.00912511 1.82498 -0.00912511 1.47686 0.0332403 1.27643C0.0756058 1.0338 0.26625 0.748981 0.5734 0.464157L1.03942 0.010549ZM13.8867 37.755C13.7491 37.9343 13.6114 38.2402 13.5796 38.4301C13.5372 38.62 13.5478 38.9576 13.5902 39.1896C13.6396 39.471 13.7914 39.7417 14.0456 40.0019C14.268 40.2234 14.5964 40.4133 14.8082 40.4661C15.0094 40.4977 15.3589 40.5083 15.5708 40.4766C15.8038 40.4344 16.1215 40.2656 16.3439 40.0652C16.5558 39.8753 16.7782 39.5589 16.8417 39.3479C16.8947 39.1474 16.9159 38.7888 16.8841 38.5567C16.8523 38.3246 16.6829 37.9765 16.524 37.7761C16.3651 37.5756 16.0792 37.3541 15.8885 37.2803C15.6979 37.1959 15.3907 37.1431 15.2001 37.1431C15.0094 37.1431 14.6917 37.2064 14.501 37.2908C14.2998 37.3647 14.0244 37.5756 13.8867 37.755ZM35.5143 33.7674C35.8638 33.7674 36.4357 33.8307 36.7853 33.9257C37.1348 34.0206 37.6961 34.2421 38.035 34.432C38.3846 34.6114 38.9141 35.0228 39.2213 35.3392C39.5496 35.6874 39.9203 36.2254 40.1215 36.6579C40.344 37.122 40.5134 37.7022 40.577 38.1875C40.6617 38.7677 40.6511 39.1685 40.5664 39.6643C40.4922 40.0441 40.291 40.6665 40.1109 41.0357C39.9309 41.4155 39.5284 41.9851 39.2213 42.3016C38.9141 42.6286 38.3846 43.04 38.035 43.2194C37.6961 43.4093 37.1348 43.6308 36.7853 43.7257C36.4357 43.8207 35.885 43.8945 35.5673 43.8945C35.2389 43.8945 34.7094 43.8207 34.3704 43.7363C34.0421 43.6413 33.5125 43.4514 33.2054 43.2932C32.8982 43.135 32.3898 42.7658 32.0721 42.4598C31.7438 42.1539 31.3307 41.637 31.1507 41.2889C30.96 40.9513 30.7376 40.3817 30.6423 40.0336C30.5575 39.6854 30.4834 39.1474 30.4834 38.8204C30.4834 38.504 30.5469 37.9765 30.6423 37.6389C30.727 37.3014 30.9282 36.7845 31.0765 36.4785C31.2354 36.1726 31.6061 35.6663 31.9132 35.3392C32.2204 35.0228 32.75 34.6114 33.0889 34.432C33.4278 34.2421 33.968 34.0206 34.2963 33.9362C34.614 33.8518 35.1648 33.7674 35.5143 33.7674ZM34.2221 37.755C34.0845 37.9343 33.9468 38.2402 33.915 38.4301C33.8726 38.62 33.8832 38.9576 33.9256 39.1896C33.975 39.471 34.1268 39.7417 34.381 40.0019C34.6034 40.2234 34.9318 40.4133 35.1436 40.4661C35.3448 40.4977 35.7049 40.4977 35.938 40.4661C36.2204 40.4098 36.4887 40.2551 36.7429 40.0019C36.9653 39.7804 37.1665 39.4639 37.2089 39.2424C37.2513 39.042 37.2513 38.7044 37.2195 38.4829C37.1771 38.2613 37.0183 37.9343 36.8594 37.755C36.7005 37.5651 36.4146 37.3541 36.2239 37.2803C36.0333 37.1959 35.7261 37.1431 35.5355 37.1431C35.3448 37.1431 35.0271 37.2064 34.8365 37.2908C34.6352 37.3647 34.3598 37.5756 34.2221 37.755Z" fill="url(#paint0_linear_144_17)"/>
<defs>
<linearGradient id="paint0_linear_144_17" x1="-2.49016" y1="44.2251" x2="48.3637" y2="43.8458" gradientUnits="userSpaceOnUse">
<stop stop-color="#0DC5F5"/>
<stop offset="0.161449" stop-color="#B6F2FF"/>
<stop offset="0.229167" stop-color="#71DDF1"/>
<stop offset="0.324806" stop-color="#48CEFF"/>
<stop offset="0.398594" stop-color="#61D7F6"/>
<stop offset="0.50326" stop-color="#A8E9FF"/>
<stop offset="0.566519" stop-color="#60D2FF"/>
<stop offset="0.639231" stop-color="#A0E2FF"/>
<stop offset="0.723541" stop-color="#96E0FF"/>
<stop offset="0.814614" stop-color="#A4E7FF"/>
<stop offset="0.903012" stop-color="#5DD6F8"/>
<stop offset="1" stop-color="#28A2D8"/>
</linearGradient>
</defs>
</svg>
