<svg width="24" height="24" viewBox="0 0 24 24" fill="none" xmlns="http://www.w3.org/2000/svg" _ngcontent-yog-c19="" aria-hidden="true" style="width: 32px; height: 32px;">
<path d="M17.2735 7.9585C17.7305 7.53662 17.7305 6.79834 17.2735 6.37646C16.8516 5.91943 16.1133 5.91943 15.6914 6.37646L12 10.0679L8.27346 6.37646C7.85159 5.91943 7.11331 5.91943 6.69143 6.37646C6.2344 6.79834 6.2344 7.53662 6.69143 7.9585L10.3828 11.6499L6.69143 15.3765C6.2344 15.7983 6.2344 16.5366 6.69143 16.9585C7.11331 17.4155 7.85159 17.4155 8.27346 16.9585L12 13.2671L15.6914 16.9585C16.1133 17.4155 16.8516 17.4155 17.2735 16.9585C17.7305 16.5366 17.7305 15.7983 17.2735 15.3765L13.5821 11.6499L17.2735 7.9585Z" fill="#FEFEFE" _ngcontent-yog-c19=""></path>
</svg>