<svg width="92" height="47" viewBox="0 0 92 47" fill="none" xmlns="http://www.w3.org/2000/svg">
<g clip-path="url(#clip0_143_9)">
<path d="M70.0836 0.524376C75.5916 8.18706 81.0504 15.7828 86.5424 23.4216C86.3006 23.5124 86.0932 23.5973 85.8812 23.6702C80.7788 25.4445 75.6753 27.2128 70.5775 28.9979C70.2314 29.1186 69.9381 29.1151 69.5955 28.9943C64.4404 27.1901 59.2807 25.4003 54.1222 23.6069C53.9755 23.5555 53.8311 23.4957 53.6283 23.4168C59.1145 15.7864 64.5779 8.18586 70.0836 0.524376ZM70.071 5.314C66.0583 10.8963 62.1212 16.3746 58.1051 21.9629C62.1739 21.4906 66.119 21.0327 70.071 20.5736V5.314Z" fill="#4ACFFF"/>
<path d="M70.0848 46.345C64.6042 39.1965 59.165 32.1029 53.7268 25.0093L53.7715 24.94C54.2413 25.142 54.7111 25.3405 55.1798 25.545C60.0129 27.6457 64.846 29.7451 69.6745 31.8566C69.977 31.9893 70.22 31.9774 70.5179 31.8482C75.6764 29.5957 80.8395 27.3551 86.0015 25.1121C86.1299 25.056 86.2605 25.0057 86.4392 25.0141C81.0034 32.1041 75.5687 39.1941 70.0848 46.345ZM62.6724 31.9092L62.6048 32.0049C65.0694 35.2199 67.5353 38.4349 70.0584 41.7252C70.0733 41.571 70.0836 41.5172 70.0836 41.4645C70.0836 39.4523 70.0767 37.4401 70.0928 35.4279C70.0951 35.1218 69.9324 35.0584 69.7307 34.9712C67.9386 34.1964 66.1488 33.4169 64.3579 32.6397C63.7964 32.3958 63.235 32.1519 62.6735 31.9092H62.6724Z" fill="#4ACFFF"/>
</g>
<path d="M14.0849 19.7065L22.7324 10.5994L31.3844 19.7112L36.4162 14.4118L22.7324 0L9.05332 14.4071L14.0849 19.7065ZM0.468262 23.4476L5.5002 18.1481L10.5318 23.4473L5.49991 28.7467L0.468262 23.4476ZM14.0849 27.1902L22.7324 36.2974L31.3842 27.1858L36.4186 32.4823L36.4162 32.4851L22.7324 46.8967L9.05288 32.49L9.04575 32.4825L14.0849 27.1902ZM34.9339 23.4505L39.9658 18.1511L44.9974 23.4502L39.9655 28.7497L34.9339 23.4505Z" fill="#4ACFFF"/>
<path d="M27.8363 23.4452H27.8386L22.7326 18.0678L18.9592 22.0418H18.959L18.5255 22.4986L17.6314 23.4405L17.6243 23.4478L17.6314 23.4555L22.7326 28.8282L27.8386 23.4508L27.841 23.4478L27.8363 23.4452Z" fill="#4ACFFF"/>
<defs>
<clipPath id="clip0_143_9">
<rect width="44" height="46" fill="white" transform="translate(47.4683 0.344727)"/>
</clipPath>
</defs>
</svg>
