<svg width="19" height="19" viewBox="0 0 19 19" fill="none" xmlns="http://www.w3.org/2000/svg">
<path d="M5.94121 0.0819658C5.8707 0.126505 5.78535 0.226718 5.74824 0.304662C5.70371 0.390029 5.67773 0.523646 5.67773 0.664687V0.887383C5.30664 0.887383 5.18418 0.913365 5.08398 0.961615C4.98503 1.0111 4.91081 1.08534 4.86133 1.18431C4.82051 1.26597 4.78711 1.38103 4.78711 1.44412C4.78711 1.50351 4.82051 1.62228 4.86133 1.70394C4.91081 1.80291 4.98503 1.87714 5.08398 1.92663C5.18294 1.97612 5.30664 2.00086 5.45508 2.00086H5.67773C5.67773 2.37202 5.70371 2.49451 5.75195 2.59472C5.80143 2.6937 5.87565 2.76793 5.97461 2.81742C6.05625 2.85824 6.17129 2.89165 6.23438 2.89165C6.29375 2.89165 6.4125 2.85824 6.49414 2.81742C6.5931 2.76793 6.66732 2.6937 6.7168 2.59472C6.76628 2.49574 6.79102 2.37202 6.79102 2.22356V2.00086C7.16211 2.00086 7.28457 1.97488 7.38477 1.92663C7.48372 1.87714 7.55794 1.80291 7.60742 1.70394C7.64824 1.62228 7.68164 1.50351 7.68164 1.44412C7.68164 1.38103 7.64824 1.26597 7.60742 1.18431C7.55794 1.08534 7.48372 1.0111 7.38477 0.961615C7.28581 0.912127 7.16211 0.887383 7.01367 0.887383H6.79102C6.79102 0.523646 6.76504 0.390029 6.72051 0.30095C6.6834 0.226718 6.59063 0.126505 6.51641 0.0819658C6.43106 0.0262918 6.32715 -0.00340102 6.22695 0.000310585C6.13047 0.000310585 6.01543 0.033715 5.94121 0.0819658ZM17.2596 0.0819658C17.1891 0.126505 17.1037 0.226718 17.0666 0.304662C17.0221 0.390029 16.9961 0.523646 16.9961 0.664687V0.887383C16.625 0.887383 16.5025 0.913365 16.4023 0.961615C16.3034 1.0111 16.2292 1.08534 16.1797 1.18431C16.1389 1.26597 16.1055 1.38103 16.1055 1.44412C16.1055 1.50351 16.1389 1.62228 16.1797 1.70394C16.2292 1.80291 16.3034 1.87714 16.4023 1.92663C16.5013 1.97612 16.625 2.00086 16.7734 2.00086H16.9961C16.9961 2.37202 17.0221 2.49451 17.0703 2.59472C17.1198 2.6937 17.194 2.76793 17.293 2.81742C17.3746 2.85824 17.4896 2.89165 17.5527 2.89165C17.6121 2.89165 17.7309 2.85824 17.8125 2.81742C17.9115 2.76793 17.9857 2.6937 18.0352 2.59472C18.0846 2.49574 18.1094 2.37202 18.1094 2.22356V2.00086C18.4805 2.00086 18.6029 1.97488 18.7031 1.92663C18.8021 1.87714 18.8763 1.80291 18.9258 1.70394C18.9666 1.62228 19 1.50351 19 1.44412C19 1.38103 18.9666 1.26597 18.9258 1.18431C18.8763 1.08534 18.8021 1.0111 18.7031 0.961615C18.6042 0.912127 18.4805 0.887383 18.332 0.887383H18.1094C18.1094 0.523646 18.0834 0.390029 18.0389 0.304662C18.0018 0.226718 17.909 0.126505 17.8348 0.0819658C17.7494 0.0262918 17.6455 -0.00340102 17.5453 0.000310585C17.4488 0.000310585 17.3338 0.033715 17.2596 0.0819658ZM17.2855 11.3912C17.1965 11.4395 17.1186 11.5211 17.0703 11.6139C17.0208 11.7129 16.9961 11.8366 16.9961 11.9851V12.2078C16.625 12.2078 16.5025 12.2337 16.4023 12.282C16.3034 12.3315 16.2292 12.4057 16.1797 12.5047C16.1389 12.5864 16.1055 12.7014 16.1055 12.7645C16.1055 12.8239 16.1389 12.9427 16.1797 13.0243C16.2292 13.1233 16.3034 13.1975 16.4023 13.247C16.5013 13.2965 16.625 13.3212 16.7734 13.3212H16.9961C16.9961 13.6924 17.0221 13.8149 17.0703 13.9151C17.1198 14.0141 17.194 14.0883 17.293 14.1378C17.3746 14.1786 17.4896 14.212 17.5527 14.212C17.6121 14.212 17.7309 14.1786 17.8125 14.1378C17.9115 14.0883 17.9857 14.0141 18.0352 13.9151C18.0846 13.8161 18.1094 13.6924 18.1094 13.5439V13.3212C18.4805 13.3212 18.6029 13.2953 18.7031 13.247C18.8021 13.1975 18.8763 13.1233 18.9258 13.0243C18.9666 12.9427 19 12.8239 19 12.7645C19 12.7014 18.9666 12.5864 18.9258 12.5047C18.8763 12.4057 18.8021 12.3315 18.7031 12.282C18.6042 12.2325 18.4805 12.2078 18.332 12.2078H18.1094C18.1094 11.8366 18.0834 11.7141 18.0352 11.6139C17.9857 11.5149 17.9115 11.4407 17.8125 11.3912C17.7309 11.3504 17.6084 11.317 17.5453 11.317C17.4785 11.3207 17.3598 11.3541 17.2855 11.3912ZM2.64961 13.5662C1.51035 14.5758 0.541797 15.4628 0.449023 15.5779C0.359961 15.693 0.244922 15.8785 0.200391 15.9862C0.152148 16.0901 0.0853516 16.2831 0.0556641 16.413C0.0259766 16.5392 0 16.7433 0 16.8658C0 16.9883 0.0333984 17.2221 0.0742188 17.3855C0.11875 17.5488 0.204102 17.7826 0.270898 17.9051C0.337695 18.0276 0.497266 18.2354 0.630859 18.369C0.764453 18.5026 0.957422 18.6548 1.05762 18.7105C1.16152 18.7662 1.36934 18.8552 1.52148 18.9072C1.74043 18.9814 1.87031 19 2.13379 19C2.41211 19 2.52344 18.9814 2.7832 18.8887C2.95762 18.8256 3.17285 18.7253 3.26562 18.666C3.3584 18.6029 3.48457 18.5101 3.54766 18.4507C3.61445 18.395 4.44941 17.4634 5.40313 16.3833C6.36055 15.2995 7.16953 14.3828 7.19922 14.3494C7.25117 14.2863 7.16211 14.1898 5.99316 13.0206C5.29922 12.3303 4.72031 11.7624 4.70918 11.7624C4.69805 11.7624 3.77031 12.5752 2.64961 13.5662ZM11.3072 0.701803C11.2219 0.750054 11.1439 0.831709 11.0957 0.924499C11.0462 1.02348 11.0215 1.1472 11.0215 1.29566V1.51836C10.6504 1.51836 10.5279 1.54434 10.4277 1.59259C10.3288 1.64208 10.2546 1.71631 10.2051 1.81528C10.1643 1.89694 10.1309 2.012 10.1309 2.0751C10.1309 2.13448 10.1643 2.25325 10.2051 2.33491C10.2546 2.43388 10.3288 2.50812 10.4277 2.5576C10.5267 2.60709 10.6504 2.63184 10.7988 2.63184H11.0215C11.0215 3.003 11.0475 3.12548 11.0957 3.22569C11.1452 3.32467 11.2194 3.3989 11.3184 3.44839C11.4 3.48922 11.515 3.52262 11.5781 3.52262C11.6375 3.52262 11.7563 3.48922 11.8379 3.44839C11.9368 3.3989 12.0111 3.32467 12.0605 3.22569C12.11 3.12672 12.1348 3.003 12.1348 2.85453V2.63184C12.5059 2.63184 12.6283 2.60585 12.7285 2.5576C12.8275 2.50812 12.9017 2.43388 12.9512 2.33491C12.992 2.25325 13.0254 2.13448 13.0254 2.0751C13.0254 2.012 12.992 1.89694 12.9512 1.81528C12.9017 1.71631 12.8275 1.64208 12.7285 1.59259C12.6296 1.5431 12.5059 1.51836 12.3574 1.51836H12.1348C12.1348 1.1472 12.1088 1.02471 12.0605 0.924499C12.0111 0.825523 11.9368 0.751291 11.8379 0.701803C11.7563 0.660976 11.6338 0.627571 11.567 0.627571C11.5039 0.631283 11.3852 0.664687 11.3072 0.701803ZM3.28789 3.38158C3.20996 3.42983 3.11348 3.52633 3.07637 3.59685C3.03555 3.66737 3.00586 3.78614 3.00586 3.85666C3.00586 3.92719 3.04297 4.05338 3.09121 4.13132C3.16172 4.25381 3.28047 4.33917 3.91504 4.6992C4.32324 4.93303 4.8502 5.23367 5.08398 5.36358C5.36602 5.51946 5.55156 5.60112 5.62949 5.60112C5.69629 5.60112 5.81875 5.56771 5.90039 5.52689C5.99935 5.4774 6.07357 5.40317 6.12305 5.30419C6.16387 5.22253 6.19727 5.10005 6.19727 5.03695C6.19727 4.97015 6.16016 4.84766 6.11191 4.76972C6.04141 4.64352 5.89668 4.54702 4.89844 3.97544C3.99297 3.45581 3.7332 3.32591 3.59961 3.31106C3.47344 3.29992 3.39922 3.31848 3.28789 3.38158ZM8.92852 3.67851C8.85059 3.72676 8.7541 3.82326 8.71699 3.89378C8.6502 4.01255 8.64648 4.12761 8.64648 5.28563V6.54758C6.63145 8.02108 6.38652 8.21408 6.33457 8.32543C6.30117 8.39966 6.27148 8.5073 6.27148 8.5704C6.27148 8.62978 6.30488 8.74856 6.3457 8.83021C6.39766 8.93414 6.46445 9.00095 6.57578 9.05291C6.67969 9.09745 7.20293 9.19766 8.07129 9.33128C8.80606 9.44634 9.41836 9.55026 9.4332 9.56511C9.44434 9.57995 9.55195 10.1924 9.66328 10.9273C9.80059 11.8069 9.89707 12.3154 9.94531 12.423C9.99727 12.5344 10.0641 12.6012 10.168 12.6532C10.2496 12.694 10.3646 12.7274 10.4277 12.7274C10.4871 12.7274 10.5984 12.6977 10.6727 12.6643C10.784 12.6123 10.977 12.3674 11.6301 11.4766L12.4502 10.352C14.8697 10.352 14.9848 10.3483 15.1035 10.2814C15.174 10.2443 15.2705 10.1478 15.3187 10.0699C15.3818 9.96225 15.4004 9.88059 15.393 9.75811C15.3818 9.60965 15.3076 9.48716 14.6842 8.61865C14.302 8.08047 13.9902 7.61652 13.9902 7.58682C13.9902 7.55713 14.1609 6.92616 14.365 6.18755C14.6656 5.10747 14.7361 4.81426 14.7139 4.71033C14.699 4.6361 14.6285 4.52475 14.5506 4.44681C14.4727 4.36887 14.3613 4.29835 14.2871 4.2835C14.1832 4.26123 13.8938 4.33175 12.8213 4.63239C12.0865 4.83653 11.4557 5.00726 11.4186 5.00726C11.3852 5.00726 10.9176 4.69549 10.3795 4.31319C9.51113 3.68964 9.38867 3.61541 9.24023 3.60428C9.11777 3.59685 9.03613 3.61541 8.92852 3.67851ZM16.651 6.04651C16.5656 6.09476 16.4877 6.17642 16.4395 6.26921C16.39 6.36818 16.3652 6.4919 16.3652 6.64037V6.86306C15.9941 6.86306 15.8717 6.88904 15.7715 6.93729C15.6725 6.98678 15.5983 7.06101 15.5488 7.15999C15.508 7.24165 15.4746 7.35671 15.4746 7.4198C15.4746 7.47919 15.508 7.59796 15.5488 7.67961C15.5983 7.77859 15.6725 7.85282 15.7715 7.90231C15.8704 7.9518 15.9941 7.97654 16.1426 7.97654H16.3652C16.3652 8.3477 16.3912 8.47019 16.4395 8.5704C16.4889 8.66938 16.5632 8.74361 16.6621 8.7931C16.7437 8.83392 16.8588 8.86733 16.9219 8.86733C16.9813 8.86733 17.1 8.83392 17.1816 8.7931C17.2806 8.74361 17.3548 8.66938 17.4043 8.5704C17.4538 8.47142 17.4785 8.3477 17.4785 8.19924V7.97654C17.8496 7.97654 17.9721 7.95056 18.0723 7.90231C18.1712 7.85282 18.2454 7.77859 18.2949 7.67961C18.3357 7.59796 18.3691 7.47919 18.3691 7.4198C18.3691 7.35671 18.3357 7.24165 18.2949 7.15999C18.2454 7.06101 18.1712 6.98678 18.0723 6.93729C17.9733 6.88781 17.8496 6.86306 17.7012 6.86306H17.4785C17.4785 6.4919 17.4525 6.36942 17.4043 6.26921C17.3548 6.17023 17.2806 6.096 17.1816 6.04651C17.1 6.00568 16.9775 5.97228 16.9107 5.97228C16.8477 5.97599 16.7289 6.00939 16.651 6.04651ZM3.09863 6.43252C2.30078 6.53644 1.87031 6.60696 1.78867 6.6515C1.72188 6.68862 1.63652 6.7777 1.5957 6.86306C1.55488 6.94472 1.52148 7.05978 1.52148 7.12287C1.52148 7.18226 1.55488 7.30103 1.5957 7.38269C1.64766 7.48661 1.71816 7.55713 1.84062 7.61652L2.00762 7.69817C4.17109 7.42723 4.62383 7.35299 4.71289 7.31217C4.78711 7.27505 4.87988 7.18226 4.92441 7.1006C4.97266 7.02266 5.00977 6.90018 5.00977 6.83708C5.00977 6.77027 4.97637 6.64779 4.93555 6.56613C4.88607 6.46716 4.81185 6.39293 4.71289 6.34344C4.63125 6.30261 4.50137 6.26921 4.42344 6.27292C4.34922 6.27663 3.75176 6.34715 3.09863 6.43252ZM5.99688 10.6044L5.55898 11.0015C7.77441 13.2099 8.0082 13.4215 8.04902 13.3843C8.07871 13.3584 8.25684 13.1616 8.44609 12.9427L8.79492 12.5418L8.47578 10.519C6.98398 10.2777 6.52383 10.2072 6.49414 10.2072C6.46445 10.2072 6.2418 10.3854 5.99688 10.6044ZM13.7008 12.8647C13.634 12.8981 13.5412 12.9761 13.4967 13.0392C13.4373 13.1245 13.415 13.2062 13.415 13.3584C13.4187 13.5551 13.4447 13.6108 14.0682 14.6945C14.6434 15.6893 14.7398 15.8377 14.866 15.9082C14.9439 15.9565 15.0664 15.9936 15.1295 15.9936C15.1963 15.9936 15.3188 15.9602 15.4004 15.9194C15.4993 15.8699 15.5736 15.7956 15.623 15.6967C15.6639 15.615 15.6973 15.4925 15.6973 15.4294C15.6973 15.3478 15.6156 15.1622 15.4598 14.8801C15.3299 14.6463 15.0293 14.1192 14.7955 13.711C14.4355 13.0763 14.3502 12.9575 14.2277 12.887C14.1498 12.8387 14.0236 12.8016 13.9531 12.8016C13.8826 12.8016 13.7676 12.8313 13.7008 12.8647ZM11.901 14.0636C11.8193 14.1081 11.7377 14.1935 11.6932 14.2788C11.6449 14.3791 11.5818 14.7725 11.4631 15.7152L11.3035 17.0143C11.4148 17.237 11.4965 17.3372 11.5596 17.378C11.6189 17.4226 11.7377 17.4634 11.8193 17.4708C11.9232 17.482 12.016 17.4634 12.1236 17.4077C12.23 17.3558 12.3067 17.284 12.3537 17.1924C12.402 17.0922 12.4688 16.6877 12.5838 15.7635L12.7471 14.4756C12.6061 14.1861 12.5355 14.1155 12.4316 14.0636C12.35 14.0227 12.2275 13.9893 12.1607 13.9893C12.0977 13.993 11.9789 14.0265 11.901 14.0636Z" fill="url(#paint0_linear_563_4307)"/>
<defs>
<linearGradient id="paint0_linear_563_4307" x1="-1.0753" y1="19.0972" x2="20.8843" y2="18.9334" gradientUnits="userSpaceOnUse">
<stop stop-color="#0DC5F5"/>
<stop offset="0.161449" stop-color="#B6F2FF"/>
<stop offset="0.229167" stop-color="#71DDF1"/>
<stop offset="0.324806" stop-color="#48CEFF"/>
<stop offset="0.398594" stop-color="#61D7F6"/>
<stop offset="0.50326" stop-color="#A8E9FF"/>
<stop offset="0.566519" stop-color="#60D2FF"/>
<stop offset="0.639231" stop-color="#A0E2FF"/>
<stop offset="0.723541" stop-color="#96E0FF"/>
<stop offset="0.814614" stop-color="#A4E7FF"/>
<stop offset="0.903012" stop-color="#5DD6F8"/>
<stop offset="1" stop-color="#28A2D8"/>
</linearGradient>
</defs>
</svg>
