<svg width="44" height="44" viewBox="0 0 44 44" fill="none" xmlns="http://www.w3.org/2000/svg">
<path fill-rule="evenodd" clip-rule="evenodd" d="M33.314 0.0010376C34.1572 -0.00755763 34.5186 0.0354185 35.1553 0.198728C35.5941 0.310466 36.1877 0.499561 36.4716 0.619894C36.7556 0.740227 37.203 0.955108 37.4611 1.10982C37.7192 1.26454 38.1666 1.57396 38.4505 1.79744C38.7345 2.02092 39.156 2.4077 39.3883 2.66556C39.6207 2.92341 39.9476 3.34458 40.1283 3.60244C40.3004 3.86029 40.5671 4.30725 40.7047 4.59089C40.851 4.87453 41.0661 5.41603 41.1865 5.79422C41.307 6.17241 41.4533 6.80846 41.5135 7.21243C41.5737 7.65938 41.5909 8.27824 41.5651 8.80255C41.5307 9.27529 41.4361 9.95431 41.3414 10.3067C41.2554 10.6591 41.0575 11.2436 40.9112 11.596C40.765 11.9484 40.4552 12.5329 40.2229 12.8853C39.9906 13.2377 39.5604 13.7792 38.7431 14.6473L38.9409 14.7762C39.0528 14.845 39.44 15.1372 39.8185 15.4209C40.1971 15.7045 40.6015 16.0913 40.7219 16.2718C40.9026 16.5554 40.9456 16.7102 40.9456 17.1915C40.9456 17.6986 40.9112 17.8189 40.6875 18.137C40.5413 18.3347 40.2917 18.5753 40.1283 18.6613C39.9648 18.7472 39.6723 18.8418 39.483 18.8676C39.2851 18.9019 38.9926 18.8762 38.7947 18.8074C38.6054 18.7472 38.1752 18.4894 37.8483 18.2315C37.5127 17.9737 36.9449 17.6213 36.5749 17.4322C36.2135 17.2517 35.6285 17.0196 35.2843 16.9164C34.9057 16.8047 34.2863 16.7188 33.6754 16.693C32.9269 16.6586 32.5053 16.6844 31.9546 16.7875C31.5503 16.8735 30.9308 17.0626 30.578 17.2087C30.2253 17.3548 29.6574 17.6556 29.3305 17.8791C28.9949 18.1026 28.4959 18.5323 28.2034 18.8332C27.9108 19.1254 27.5065 19.6411 27.2914 19.9763C27.0763 20.303 26.8009 20.8101 26.6891 21.0937C26.5686 21.3774 26.4138 21.8759 26.3363 22.2111C26.2589 22.5377 26.1729 23.0964 26.061 24.0591L34.4067 24.0763C42.1674 24.1021 42.7697 24.1106 43.0278 24.2568C43.1826 24.3341 43.3977 24.4888 43.4924 24.6006C43.5956 24.7037 43.7505 24.9444 43.8365 25.1335C43.9226 25.3226 44 25.6234 44 25.8039C44 25.9758 43.9398 26.268 43.8623 26.4485C43.7935 26.6205 43.6472 26.8611 43.544 26.9729C43.4408 27.0846 43.1998 27.2479 43.0106 27.3339C42.6836 27.4886 42.219 27.4972 23.9961 27.4972L23.6089 27.2995C23.3508 27.162 23.1357 26.9557 22.7055 26.2595L22.7141 24.4115C22.7227 22.7526 22.7485 22.4518 22.9378 21.6094C23.0583 21.0851 23.282 20.3545 23.4282 19.9763C23.5745 19.5982 23.8756 18.9707 24.0993 18.5839C24.3316 18.1971 24.7618 17.5697 25.0716 17.1743C25.3813 16.7875 25.8803 16.246 26.1901 15.9796C26.4998 15.7045 27.0246 15.2919 27.9883 14.6473L27.6011 14.2605C27.386 14.0456 27.0246 13.6417 26.8095 13.358C26.5858 13.0744 26.2503 12.5329 26.0438 12.1547C25.8459 11.7765 25.5878 11.1147 25.4587 10.6935C25.3383 10.2637 25.2006 9.55033 25.149 9.10338C25.0802 8.51031 25.0888 8.05476 25.1576 7.42731C25.2178 6.95457 25.3555 6.25836 25.476 5.88017C25.5964 5.50198 25.8287 4.91751 25.9922 4.59089C26.1557 4.25567 26.4568 3.75715 26.6461 3.47351C26.844 3.18987 27.2311 2.72572 27.5237 2.44208C27.8076 2.15844 28.2894 1.74587 28.5991 1.52239C28.9089 1.30751 29.4681 0.972298 29.8467 0.791798C30.2253 0.611299 30.9222 0.362037 31.3954 0.233109C32.0923 0.052609 32.4537 0.0010376 33.3054 0.0010376H33.314ZM31.0598 4.0236C30.8189 4.16113 30.4232 4.46196 30.165 4.69403C29.9155 4.91751 29.5542 5.33867 29.3649 5.62232C29.1842 5.90596 28.9519 6.34431 28.8573 6.59358C28.7712 6.83424 28.6508 7.32417 28.6077 7.66798C28.5475 8.08915 28.5475 8.48453 28.6077 8.91429C28.6508 9.2495 28.7712 9.75662 28.8659 10.0317C28.9605 10.2981 29.2186 10.788 29.4509 11.1147C29.6746 11.4413 30.0274 11.8624 30.2425 12.0429C30.4576 12.2234 30.8964 12.5071 31.2319 12.6704C31.5589 12.8423 32.1267 13.0314 32.4795 13.1088C32.9097 13.1947 33.314 13.2291 33.684 13.1947C33.9937 13.1603 34.4153 13.083 34.6304 13.0228C34.8455 12.9626 35.2671 12.7821 35.5769 12.6274C35.921 12.4555 36.3512 12.1289 36.704 11.7765C37.1255 11.3553 37.3578 11.0201 37.6246 10.4786C37.8138 10.0746 38.0117 9.51595 38.0634 9.23231C38.115 8.94867 38.158 8.5275 38.158 8.28684C38.158 8.05476 38.0978 7.58203 38.0289 7.25541C37.9515 6.92019 37.7708 6.40448 37.616 6.09505C37.4697 5.79422 37.1255 5.30429 36.8588 5.02065C36.5921 4.73701 36.1705 4.36741 35.9124 4.2041C35.6543 4.04079 35.1983 3.81732 34.8885 3.70558C34.51 3.56806 34.0712 3.4907 33.5549 3.46491C32.9527 3.43913 32.6343 3.46491 32.1353 3.60244C31.7826 3.70558 31.2921 3.89468 31.0598 4.0236ZM10.5569 16.5039C11.0731 16.5039 11.77 16.5468 12.1142 16.6156C12.4497 16.6844 13.0606 16.8563 13.465 17.0024C13.8694 17.1485 14.5061 17.4579 14.8846 17.69C15.2632 17.9221 15.8224 18.3347 16.1236 18.6183C16.4247 18.8933 16.9065 19.4262 17.1905 19.8044C17.4658 20.1826 17.8443 20.8015 18.025 21.1797C18.2057 21.5579 18.438 22.1595 18.5327 22.5119C18.6273 22.8643 18.7564 23.5262 18.808 23.9731C18.8768 24.5748 18.8768 25.0046 18.808 25.6062C18.7478 26.0532 18.6359 26.7064 18.5413 27.0502C18.4466 27.3854 18.2573 27.9097 18.1283 28.2106C17.9906 28.5028 17.7067 29.0271 17.483 29.3709C17.2593 29.7061 16.8377 30.2476 16.0031 31.1329L16.6054 31.5455C16.9323 31.7604 17.5088 32.2331 17.8874 32.5769C18.2573 32.9293 18.808 33.5396 19.1177 33.9436C19.4189 34.3476 19.8318 35.0008 20.0383 35.4048C20.2448 35.8087 20.5201 36.4276 20.6492 36.78C20.7697 37.1324 20.9503 37.7685 21.045 38.1982C21.1654 38.7397 21.2257 39.4789 21.2601 40.6479C21.3031 41.7824 21.2859 42.4443 21.2171 42.6935C21.1654 42.8912 21.0192 43.1749 20.8901 43.3296C20.7524 43.4757 20.5029 43.6906 20.0039 44H1.20454L0.817364 43.7593C0.602268 43.6304 0.335549 43.364 0.215096 43.1835C0 42.8396 0 42.8225 0 40.9057C0.00860383 39.35 0.0344153 38.8257 0.163473 38.2412C0.249511 37.8372 0.412984 37.2356 0.533438 36.9089C0.645287 36.5737 0.886195 35.9978 1.06688 35.6197C1.25616 35.2415 1.65194 34.5882 1.95307 34.1671C2.2456 33.7459 2.82206 33.0927 3.22644 32.7059C3.63082 32.3191 4.24169 31.812 4.58584 31.5713C4.93 31.3392 5.21392 31.1329 5.20532 31.1072C5.20532 31.0814 4.99022 30.8493 4.7235 30.5914C4.46539 30.3336 4.0352 29.8093 3.78569 29.4311C3.52757 29.0529 3.20923 28.4684 3.07157 28.1418C2.9253 27.8066 2.71881 27.2135 2.61557 26.8095C2.45209 26.2165 2.41768 25.8469 2.41768 24.8326C2.41768 23.8184 2.45209 23.4402 2.60696 22.8128C2.71881 22.383 2.96832 21.6868 3.16621 21.2656C3.3727 20.8359 3.66523 20.303 3.82871 20.0623C3.99218 19.8302 4.37935 19.3575 4.69769 19.0309C5.00743 18.6957 5.57528 18.2143 5.94525 17.9565C6.32382 17.6986 6.89167 17.3634 7.22722 17.2173C7.55416 17.0626 8.13923 16.8563 8.51779 16.7617C8.89636 16.6672 9.30074 16.5726 9.4212 16.5554C9.54165 16.5383 10.0493 16.5125 10.5655 16.5039H10.5569ZM8.5264 20.4147C8.28549 20.535 7.88971 20.7757 7.66602 20.9476C7.43371 21.1195 7.07235 21.4977 6.85726 21.7813C6.64216 22.065 6.37544 22.4947 6.26359 22.7268C6.15174 22.9675 6.00548 23.423 5.92804 23.7582C5.85921 24.0849 5.79898 24.5748 5.79898 24.8326C5.79898 25.0905 5.87642 25.6148 5.97106 25.993C6.07431 26.3712 6.27219 26.9127 6.42706 27.1963C6.58193 27.48 6.9519 27.9613 7.26163 28.2707C7.60579 28.6145 8.03598 28.9412 8.38013 29.1131C8.68987 29.2678 9.15448 29.4483 9.41259 29.517C9.67071 29.5858 10.2214 29.646 10.6429 29.646C11.2022 29.646 11.5549 29.5944 12.0626 29.4311C12.4239 29.3194 12.923 29.0873 13.1553 28.9326C13.3962 28.7693 13.7919 28.434 14.0415 28.1762C14.291 27.9183 14.6265 27.4628 14.7814 27.1534C14.9449 26.8439 15.1427 26.3626 15.2288 26.079C15.3234 25.7523 15.375 25.271 15.375 24.7897C15.375 24.2997 15.3234 23.827 15.2288 23.5004C15.1427 23.2167 14.9535 22.7526 14.8158 22.469C14.6523 22.1595 14.3082 21.704 13.9382 21.343C13.5596 20.9648 13.1208 20.6296 12.7939 20.4577C12.4928 20.3116 12.0282 20.1311 11.7614 20.0623C11.4861 19.9935 10.9527 19.9334 10.5741 19.942C10.1955 19.942 9.67931 20.0021 9.4384 20.0709C9.18889 20.1397 8.77591 20.2858 8.535 20.4147H8.5264ZM7.46813 33.8576C7.08956 34.0381 6.5045 34.3991 6.17755 34.657C5.842 34.9063 5.35158 35.3876 5.07626 35.7142C4.79234 36.0494 4.38795 36.6855 4.14705 37.1668C3.84591 37.7685 3.66523 38.2756 3.55338 38.8429C3.45874 39.2898 3.38131 39.8657 3.38131 40.115V40.5619H17.8357C17.7583 39.5305 17.6637 38.9202 17.569 38.542C17.4744 38.1638 17.2679 37.5794 17.1044 37.2527C16.9496 36.9175 16.6742 36.4534 16.5108 36.2213C16.3387 35.9807 15.9601 35.5423 15.659 35.2501C15.3664 34.9492 14.876 34.5367 14.5663 34.3304C14.2565 34.1241 13.7575 33.849 13.4478 33.7287C13.1381 33.5998 12.596 33.4193 12.2433 33.3333C11.77 33.213 11.314 33.17 10.5655 33.1786C9.85139 33.1786 9.31795 33.2388 8.84474 33.3505C8.46617 33.4451 7.8467 33.6685 7.46813 33.8576ZM11.3226 3.94625C11.4947 3.94625 11.7873 4.00641 11.9679 4.08377C12.14 4.15253 12.3981 4.31584 12.5272 4.44477C12.6648 4.5737 12.8369 4.78858 12.9057 4.9347C12.9832 5.07222 13.0434 5.36446 13.052 5.57934C13.052 5.79422 13.0262 6.06927 12.9316 6.43886L14.5921 6.45605C16.1752 6.48184 16.2698 6.49043 16.5538 6.67953C16.7172 6.79127 16.9409 7.02334 17.0614 7.19524C17.2421 7.4531 17.2765 7.59922 17.2765 8.11493C17.2765 8.63924 17.2421 8.77676 17.0442 9.08619C16.9065 9.29248 16.6484 9.53314 16.4419 9.63629C16.1064 9.81678 15.9343 9.83398 12.9316 9.87695L13.0004 10.109C13.0348 10.2465 13.052 10.513 13.0434 10.7107C13.0262 10.917 12.966 11.1834 12.8971 11.3124C12.8283 11.4499 12.6648 11.6648 12.5358 11.8023C12.3981 11.9398 12.1572 12.1031 12.0109 12.1633C11.8561 12.232 11.5722 12.2836 11.3829 12.2836C11.1936 12.2836 10.8925 12.2234 10.7204 12.1547C10.5139 12.0687 9.85139 11.4843 8.93938 10.5818C8.06179 9.71364 7.43371 9.00883 7.33047 8.80255C7.24443 8.61345 7.16699 8.33841 7.16699 8.20088C7.16699 8.05476 7.21001 7.78831 7.26163 7.59922C7.33907 7.32417 7.64881 6.96317 8.82753 5.75984C9.73954 4.84015 10.4364 4.2127 10.6515 4.10956C10.8408 4.0236 11.142 3.94625 11.3226 3.94625ZM32.5483 31.7088C32.7634 31.7088 33.0903 31.7862 33.2796 31.8721C33.4861 31.9753 34.1916 32.6027 35.0606 33.4794C35.964 34.3905 36.5491 35.0524 36.6351 35.2501C36.704 35.4306 36.7642 35.6798 36.7642 35.8087C36.7642 35.9463 36.7212 36.2041 36.6695 36.3932C36.5921 36.6683 36.2824 37.0293 35.1036 38.2326C34.1916 39.1523 33.4947 39.7797 33.2796 39.8829C33.0903 39.9688 32.7892 40.0462 32.6171 40.0462C32.4365 40.0462 32.1439 39.986 31.9718 39.9087C31.7912 39.8399 31.533 39.6766 31.404 39.5477C31.2663 39.4187 31.0943 39.1953 31.0254 39.0577C30.948 38.9116 30.8878 38.628 30.8792 38.4131C30.8792 38.1982 30.905 37.9232 30.9996 37.5536L29.3391 37.5278C27.7216 37.5106 27.6613 37.502 27.3602 37.2957C27.1967 37.1754 26.9644 36.9519 26.8526 36.7886C26.7149 36.5737 26.6461 36.3417 26.6289 35.9721C26.6031 35.5509 26.6375 35.3704 26.8009 35.061C26.9386 34.8031 27.1537 34.5882 27.842 34.1585L30.9996 34.1155L30.9394 33.8748C30.8964 33.7459 30.8792 33.4708 30.8878 33.256C30.905 32.9809 30.991 32.7574 31.1803 32.491C31.3266 32.2847 31.6105 32.0183 31.7998 31.9065C32.0321 31.7776 32.2902 31.7088 32.5483 31.7088Z" fill="url(#paint0_linear_144_18)"/>
<defs>
<linearGradient id="paint0_linear_144_18" x1="-2.49016" y1="44.2251" x2="48.3637" y2="43.8458" gradientUnits="userSpaceOnUse">
<stop stop-color="#0DC5F5"/>
<stop offset="0.161449" stop-color="#B6F2FF"/>
<stop offset="0.229167" stop-color="#71DDF1"/>
<stop offset="0.324806" stop-color="#48CEFF"/>
<stop offset="0.398594" stop-color="#61D7F6"/>
<stop offset="0.50326" stop-color="#A8E9FF"/>
<stop offset="0.566519" stop-color="#60D2FF"/>
<stop offset="0.639231" stop-color="#A0E2FF"/>
<stop offset="0.723541" stop-color="#96E0FF"/>
<stop offset="0.814614" stop-color="#A4E7FF"/>
<stop offset="0.903012" stop-color="#5DD6F8"/>
<stop offset="1" stop-color="#28A2D8"/>
</linearGradient>
</defs>
</svg>
