<svg width="44" height="47" viewBox="0 0 44 47" fill="none" xmlns="http://www.w3.org/2000/svg">
<path d="M26.4897 41.8526C26.2525 41.8644 26.0977 41.8775 25.943 41.8775C23.3321 41.8775 20.7199 41.8788 18.109 41.8775C17.5572 41.8775 17.5546 41.8749 17.5546 41.3134C17.5546 35.7812 17.5546 30.2504 17.5546 24.7182C17.5546 24.5083 17.5546 24.2984 17.5546 24.0348C17.0802 23.998 16.6437 23.96 16.2073 23.9324C12.6817 23.712 9.18153 23.3027 5.74095 22.45C4.35558 22.1063 2.98798 21.6957 1.72947 20.9873C1.29052 20.7393 0.862984 20.435 0.501418 20.0795C-0.154475 19.434 -0.169698 18.6718 0.472239 18.008C0.835074 17.6328 1.27656 17.3154 1.73074 17.0635C3.13387 16.2816 4.66133 15.8513 6.20401 15.4879C9.18661 14.7861 12.2136 14.4056 15.2634 14.1918C16.0043 14.1393 16.744 14.0855 17.5191 14.0304V8.48779H5.2817V0H38.7754V8.4668H26.505V14.0199C26.8539 14.0488 27.1939 14.0829 27.5351 14.1026C30.982 14.3086 34.4099 14.6719 37.7757 15.4919C39.0025 15.791 40.2089 16.199 41.3939 16.6424C42.0092 16.8719 42.5991 17.2301 43.1294 17.6302C44.2839 18.5013 44.2991 19.5718 43.1218 20.4166C42.405 20.9322 41.5905 21.3376 40.771 21.6603C38.7081 22.4697 36.5514 22.9393 34.3706 23.2201C31.8764 23.5402 29.3683 23.7422 26.8665 23.9967C26.7574 24.0072 26.6471 24.0216 26.4897 24.04V41.8526ZM17.561 14.6864C17.1461 14.7061 16.8175 14.7165 16.489 14.7388C15.8102 14.7848 15.1315 14.832 14.4541 14.8884C11.7734 15.1101 9.10668 15.4407 6.48565 16.0861C5.302 16.3774 4.12723 16.7158 3.06536 17.3613C1.81067 18.1235 1.79671 19.0064 3.02857 19.7909C3.31021 19.9706 3.60835 20.1293 3.91409 20.2553C4.38222 20.4494 4.85797 20.6331 5.34259 20.7774C8.50534 21.7167 11.7544 22.1299 15.0211 22.328C17.8299 22.4972 20.6476 22.5628 23.4615 22.5615C27.61 22.5602 31.7407 22.2441 35.827 21.4674C37.3976 21.1683 38.9606 20.8167 40.4107 20.0978C40.8445 19.8827 41.2569 19.5823 41.607 19.2399C42.0104 18.8463 42.0028 18.3334 41.6032 17.9346C41.2898 17.6223 40.9257 17.3219 40.5287 17.1527C39.6558 16.7801 38.7665 16.422 37.8531 16.1832C34.2196 15.2347 30.5025 14.9081 26.7727 14.7034C26.6839 14.6982 26.5938 14.7244 26.4542 14.7441V20.881C26.2779 20.9099 26.1548 20.9401 26.0305 20.9479C23.3587 21.0988 20.6869 21.0883 18.0152 20.9401C17.5648 20.9151 17.5559 20.8941 17.5559 20.4009C17.5559 18.7164 17.5597 17.0307 17.561 15.3462C17.561 15.1534 17.561 14.9606 17.561 14.6877V14.6864Z" fill="#4ACFFF"/>
<path d="M21.9962 45.2267C26.0914 45.2267 30.1879 45.2267 34.2831 45.2267C34.4417 45.2267 34.6002 45.2188 34.7576 45.2346C35.1762 45.2752 35.4655 45.5783 35.4934 45.9915C35.5226 46.4257 35.2587 46.7944 34.8387 46.8783C34.7005 46.9059 34.5558 46.8993 34.4137 46.8993C26.1434 46.8993 17.8718 46.9006 9.60146 46.8967C9.39974 46.8967 9.18534 46.8823 8.99885 46.814C8.64489 46.6842 8.47109 46.3444 8.51296 45.9548C8.55228 45.5835 8.81997 45.291 9.18661 45.2398C9.35788 45.2162 9.53422 45.2267 9.70803 45.2267C13.8032 45.2267 17.8997 45.2267 21.9949 45.2267H21.9962Z" fill="#4ACFFF"/>
</svg>
